<svg width="165" height="34" viewBox="0 0 165 34" fill="none" xmlns="http://www.w3.org/2000/svg">
<g clip-path="url(#clip0_574_21402)">
<path d="M27.0795 7.42342C27.0795 10.036 26.0099 11.2613 24.6728 11.2613C23.3893 11.2613 22.7475 10.3604 22.1592 8.9009C21.767 7.96396 21.3035 6.79279 20.84 6.14414C20.3765 5.49549 19.913 5.27927 19.3425 5.27927C18.4511 5.27927 18.2372 5.74774 18.2372 8.72072V21.0631C18.2372 22 18.4155 22.3604 19.3068 22.7748C20.1982 23.2072 20.8756 23.6757 20.8756 24.6486C20.8756 26.6486 17.7915 27.1892 13.5665 27.1892C9.34144 27.1892 6.25734 26.6486 6.25734 24.6486C6.25734 23.6757 6.93477 23.2072 7.82613 22.7748C8.71749 22.3423 8.89576 21.982 8.89576 21.0631V8.72072C8.89576 5.74774 8.64618 5.27927 7.75482 5.27927C7.18435 5.27927 6.72085 5.49549 6.25734 6.14414C5.79383 6.79279 5.33033 7.98198 4.93813 8.9009C4.33201 10.3784 3.69023 11.2613 2.4245 11.2613C1.06963 11.2613 0 10.036 0 7.42342C0 3.69369 1.81837 0.180176 4.04677 0.180176C4.90247 0.180176 5.5086 0.5045 5.91862 1.04504H21.143C21.5709 0.5045 22.177 0.180176 23.0327 0.180176C25.2611 0.180176 27.0795 3.69369 27.0795 7.42342Z" fill="white"/>
<path d="M46.8498 12.5585C46.8498 15.3153 45.3524 17.2612 42.8744 17.2612C41.3769 17.2612 40.2894 16.5405 39.612 15.9279C39.1128 15.4955 38.7206 15.063 38.3284 15.063C37.7936 15.063 37.758 15.7477 37.758 16V16.2883V21.4955C37.758 22.2883 37.9362 22.5405 38.3641 22.8288C39.0415 23.2612 39.719 23.6937 39.719 24.7027C39.719 26.6486 36.9201 27.2072 33.4081 27.2072C30.1101 27.2072 27.543 26.6306 27.543 24.6306C27.543 23.6937 28.0778 23.3333 28.577 22.9369C28.8979 22.6847 29.0405 22.4324 29.0405 21.6396V14.8108C29.0405 13.982 28.7196 13.6216 28.3987 13.3694C27.8995 12.973 27.436 12.5045 27.436 11.7117C27.436 11.063 27.7213 10.5585 28.3987 10.0901C30.1992 8.79278 33.7112 8.05404 35.387 8.05404C37.651 8.05404 37.758 9.42341 37.758 12.1081C38.792 9.60359 40.4855 7.80179 42.8387 7.80179C45.1384 7.81981 46.8498 9.58557 46.8498 12.5585Z" fill="white"/>
<path d="M47.7947 24.6126C47.7947 23.6757 48.3295 23.3153 48.8287 22.9189C49.1496 22.6667 49.2922 22.4144 49.2922 21.6216V14.8108C49.2922 13.982 48.9713 13.6216 48.6504 13.3694C48.1512 12.973 47.6877 12.5045 47.6877 11.7117C47.6877 11.0631 47.973 10.5585 48.6504 10.0901C50.451 8.79278 53.9807 8.05405 55.6387 8.05405C57.974 8.05405 58.0097 9.49549 58.0097 12.3243V16.2703V21.6216C58.0097 22.4144 58.1523 22.6667 58.4732 22.9189C58.9724 23.3153 59.5072 23.6757 59.5072 24.6126C59.5072 26.6126 56.9579 27.1892 53.642 27.1892C50.3618 27.1892 47.7947 26.6126 47.7947 24.6126ZM48.4365 4.3063C48.4365 1.51351 51.8058 0.576569 54.6403 0.576569C57.2609 0.576569 58.4375 1.76576 58.4375 3.51351C58.4375 6.01801 54.8543 7.09909 52.2337 7.09909C49.6487 7.09909 48.4365 5.94594 48.4365 4.3063Z" fill="white"/>
<path d="M83.7165 17.2072C83.7165 23.4775 79.955 27.3153 75.0169 27.3153C73.662 27.3153 72.218 27.0631 71.0771 26.6306V28.3243C71.0771 28.973 71.1484 29.2613 71.6475 29.6216C72.1824 30.0541 72.8241 30.4865 72.8241 31.4595C72.8241 33.4234 69.954 34 66.7272 34C63.5362 34 60.7195 33.4234 60.7195 31.4595C60.7195 30.5225 61.3256 30.0901 61.8248 29.6577C62.2526 29.2973 62.3596 29.1171 62.3596 28.3243V14.8108C62.3596 14.018 62.0387 13.6216 61.7178 13.3694C61.2186 12.973 60.7551 12.5405 60.7551 11.7117C60.7551 11.0631 61.0404 10.5586 61.7178 10.0901C63.5718 8.82883 67.0481 8.05406 68.7061 8.05406C70.7918 8.05406 71.0414 9.24324 71.0771 11.4595C72.218 9.38739 74.4464 7.90991 76.9779 7.90991C80.9533 7.92793 83.7165 11.7658 83.7165 17.2072ZM74.7316 18.7928C74.7316 14.8468 73.8759 13.4054 72.7528 13.4054C71.5406 13.4054 70.8275 15.0631 70.8275 19.045C70.8275 22.991 71.5406 24.0721 72.6993 24.0721C73.8759 24.0721 74.7316 22.7387 74.7316 18.7928Z" fill="white"/>
<path d="M107.944 17.2072C107.944 23.4775 104.182 27.3153 99.2439 27.3153C97.8891 27.3153 96.4451 27.0631 95.3041 26.6306V28.3243C95.3041 28.973 95.3754 29.2612 95.8746 29.6216C96.4094 30.054 97.0512 30.4865 97.0512 31.4594C97.0512 33.4234 94.181 34 90.9543 34C87.7632 34 84.9465 33.4234 84.9465 31.4594C84.9465 30.5225 85.5527 30.0901 86.0518 29.6576C86.4797 29.2973 86.5866 29.1171 86.5866 28.3243V14.8108C86.5866 14.018 86.2657 13.6216 85.9449 13.3694C85.4457 12.973 84.9822 12.5405 84.9822 11.7117C84.9822 11.0631 85.2674 10.5585 85.9449 10.0901C87.7989 8.82882 91.2752 8.05404 92.9331 8.05404C95.0189 8.05404 95.2685 9.24323 95.3041 11.4594C96.4451 9.40539 98.6913 7.92792 101.205 7.92792C105.18 7.92792 107.944 11.7658 107.944 17.2072ZM98.9765 18.7928C98.9765 14.8468 98.1208 13.4054 96.9977 13.4054C95.7855 13.4054 95.0724 15.0631 95.0724 19.045C95.0724 22.991 95.7855 24.0721 96.9442 24.0721C98.1208 24.0721 98.9765 22.7387 98.9765 18.7928Z" fill="white"/>
<path d="M109.263 24.6126C109.263 23.6757 109.833 23.3153 110.368 22.9189C110.689 22.6667 110.867 22.4144 110.867 21.6216V7.4955C110.867 6.41441 110.368 5.94595 109.94 5.62162C109.299 5.11712 108.657 4.64865 108.657 3.72973C108.657 3.08108 108.942 2.54054 109.655 2.07207C111.563 0.756757 115.288 0 117.071 0C119.549 0 119.585 1.45946 119.585 4.34234V8.21622V21.6216C119.585 22.4144 119.727 22.6667 120.048 22.9189C120.547 23.3153 121.082 23.6757 121.082 24.6126C121.082 26.6126 118.533 27.1892 115.235 27.1892C111.848 27.1892 109.263 26.6126 109.263 24.6126Z" fill="white"/>
<path d="M141.209 20.6667C141.209 21.6757 140.781 22.8108 139.961 23.8558C138.499 25.7838 135.736 27.4414 131.939 27.4414C126.341 27.4414 122.401 23.5315 122.401 18.0721C122.401 12.1982 126.876 7.92792 132.652 7.92792C138.196 7.92792 141.102 11.5856 141.102 14.4144C141.102 16.3604 139.89 17.3874 137.626 17.3874H130.174C130.816 19.2432 132.402 20.3243 134.756 20.3243C136.217 20.3243 137.305 20 138.375 19.3874C138.874 19.0991 139.373 18.8829 139.872 18.8829C140.639 18.9009 141.209 19.4414 141.209 20.6667ZM129.817 15.2072L131.351 15.0991C133.543 14.9549 134.417 14.1261 134.417 12.991C134.417 12.018 133.775 11.2613 132.634 11.2613C130.976 11.2613 129.817 12.9549 129.817 15.2072Z" fill="white"/>
<path d="M164.688 24.6126C164.688 26.018 163.083 27.1892 157.949 27.1892C153.474 27.1892 151.282 26.2523 151.282 24.6126C151.282 23.6757 152.066 23.5315 152.066 22.8108C152.066 22.5225 151.638 21.8739 150.996 21.0631C150.782 20.7748 150.533 20.4504 150.248 20.1261L149.677 20.7387C148.893 21.6036 148.429 22.3243 148.429 22.7748C148.429 23.4595 149.642 23.7477 149.642 24.991C149.642 26.1802 148.394 27.1892 145.203 27.1892C142.404 27.1892 141.156 26.3243 141.156 24.955C141.156 23.982 142.011 23.3514 142.546 23.027C143.58 22.4144 144.222 22.0541 146.486 19.6216C146.985 19.1171 147.52 18.5045 148.18 17.8018C147.324 16.8649 146.433 15.8919 145.666 15.1171C144.525 13.964 143.616 13.1171 143.331 12.9009C142.368 12.2162 141.512 11.7477 141.512 10.6847C141.512 9.27928 142.974 8.10811 148.108 8.10811C152.547 8.10811 154.597 9.04504 154.597 10.6847C154.597 11.5135 154.063 11.8018 154.063 12.5405C154.063 12.7568 154.312 13.1892 154.74 13.7297C154.883 13.9459 155.061 14.1622 155.275 14.4144C155.453 14.2342 155.631 14.0541 155.774 13.8739C156.273 13.2613 156.594 12.7207 156.594 12.2162C156.594 11.5676 155.952 11.2793 155.952 10.4144C155.952 9.08108 157.165 8.09009 160.284 8.09009C163.083 8.09009 164.295 8.95495 164.295 10.3423C164.295 11.3874 163.511 11.8559 162.655 12.1802C161.978 12.4324 161.407 12.7207 159.036 15.045C158.573 15.5495 158.002 16.1261 157.325 16.7748C158.216 17.7477 159.179 18.7027 160.017 19.6036C161.3 20.973 162.388 22.036 162.709 22.3604C163.386 22.991 164.688 23.3514 164.688 24.6126Z" fill="white"/>
</g>
<defs>
<clipPath id="clip0_574_21402">
<rect width="164.688" height="34" fill="white"/>
</clipPath>
</defs>
</svg>
