<svg width="24" height="24" viewBox="0 0 24 24" fill="none" xmlns="http://www.w3.org/2000/svg">
<g id="Content">
<path d="M0.75 12C0.75 5.7868 5.7868 0.75 12 0.75C18.2132 0.75 23.25 5.7868 23.25 12C23.25 18.2132 18.2132 23.25 12 23.25C5.7868 23.25 0.75 18.2132 0.75 12Z" fill="#444CE7"/>
<path d="M0.75 12C0.75 5.7868 5.7868 0.75 12 0.75C18.2132 0.75 23.25 5.7868 23.25 12C23.25 18.2132 18.2132 23.25 12 23.25C5.7868 23.25 0.75 18.2132 0.75 12Z" stroke="#444CE7" stroke-width="1.5"/>
<path id="Tick" fill-rule="evenodd" clip-rule="evenodd" d="M17.0965 7.39004L9.9365 14.3L8.0365 12.27C7.6865 11.94 7.1365 11.92 6.7365 12.2C6.3465 12.49 6.2365 13 6.4765 13.41L8.7265 17.07C8.9465 17.41 9.3265 17.62 9.7565 17.62C10.1665 17.62 10.5565 17.41 10.7765 17.07C11.1365 16.6 18.0065 8.41004 18.0065 8.41004C18.9065 7.49004 17.8165 6.68004 17.0965 7.38004V7.39004Z" fill="white"/>
</g>
</svg>
