<svg width="116" height="24" viewBox="0 0 116 24" fill="none" xmlns="http://www.w3.org/2000/svg">
<g id="Group">
<path id="Vector" d="M19.0351 5.24007C19.0351 7.08427 18.2833 7.94914 17.3434 7.94914C16.4411 7.94914 15.99 7.31321 15.5765 6.283C15.3008 5.62163 14.975 4.79492 14.6492 4.33705C14.3233 3.87918 13.9975 3.72656 13.5965 3.72656C12.97 3.72656 12.8196 4.05724 12.8196 6.15581V14.8681C12.8196 15.5294 12.9449 15.7838 13.5715 16.0763C14.198 16.3816 14.6742 16.7123 14.6742 17.3991C14.6742 18.8108 12.5063 19.1924 9.53637 19.1924C6.56643 19.1924 4.39851 18.8108 4.39851 17.3991C4.39851 16.7123 4.8747 16.3816 5.50127 16.0763C6.12784 15.7711 6.25315 15.5167 6.25315 14.8681V6.15581C6.25315 4.05724 6.07771 3.72656 5.45114 3.72656C5.05014 3.72656 4.72432 3.87918 4.39851 4.33705C4.07269 4.79492 3.74688 5.63435 3.47119 6.283C3.04512 7.32592 2.59399 7.94914 1.70427 7.94914C0.751882 7.94914 0 7.08427 0 5.24007C0 2.60732 1.2782 0.127197 2.84462 0.127197C3.44612 0.127197 3.87219 0.356132 4.16041 0.73769H14.8622C15.1629 0.356132 15.589 0.127197 16.1905 0.127197C17.7569 0.127197 19.0351 2.60732 19.0351 5.24007Z" fill="#0C111D"/>
<path id="Vector_2" d="M32.9325 8.86485C32.9325 10.8108 31.8799 12.1844 30.138 12.1844C29.0854 12.1844 28.321 11.6757 27.8448 11.2432C27.4939 10.938 27.2182 10.6327 26.9426 10.6327C26.5666 10.6327 26.5415 11.116 26.5415 11.2941V11.4976V15.1733C26.5415 15.7329 26.6669 15.911 26.9676 16.1145C27.4438 16.4197 27.92 16.7249 27.92 17.4372C27.92 18.8108 25.9526 19.2051 23.4839 19.2051C21.1656 19.2051 19.3611 18.7981 19.3611 17.3863C19.3611 16.7249 19.737 16.4706 20.0879 16.1908C20.3135 16.0127 20.4137 15.8346 20.4137 15.275V10.4547C20.4137 9.86962 20.1881 9.61525 19.9626 9.43719C19.6117 9.15738 19.2859 8.8267 19.2859 8.26708C19.2859 7.80921 19.4864 7.45309 19.9626 7.1224C21.2283 6.20666 23.6969 5.6852 24.8749 5.6852C26.4664 5.6852 26.5415 6.65182 26.5415 8.54689C27.2684 6.779 28.4588 5.50714 30.113 5.50714C31.7295 5.51986 32.9325 6.76628 32.9325 8.86485Z" fill="#0C111D"/>
<path id="Vector_3" d="M33.5967 17.3736C33.5967 16.7122 33.9726 16.4579 34.3235 16.178C34.5491 16 34.6493 15.8219 34.6493 15.2623V10.4547C34.6493 9.86962 34.4237 9.61525 34.1982 9.43719C33.8473 9.15738 33.5215 8.8267 33.5215 8.26708C33.5215 7.80921 33.722 7.45309 34.1982 7.1224C35.4638 6.20666 37.9451 5.6852 39.1105 5.6852C40.7521 5.6852 40.7771 6.70269 40.7771 8.69951V11.4849V15.2623C40.7771 15.8219 40.8774 16 41.103 16.178C41.4538 16.4579 41.8298 16.7122 41.8298 17.3736C41.8298 18.7854 40.0378 19.1924 37.707 19.1924C35.4012 19.1924 33.5967 18.7854 33.5967 17.3736ZM34.0478 3.03973C34.0478 1.06835 36.4162 0.406982 38.4087 0.406982C40.2508 0.406982 41.0779 1.24641 41.0779 2.48011C41.0779 4.248 38.5591 5.01112 36.717 5.01112C34.8999 5.01112 34.0478 4.19713 34.0478 3.03973Z" fill="#0C111D"/>
<path id="Vector_4" d="M58.8473 12.1463C58.8473 16.5723 56.2032 19.2814 52.732 19.2814C51.7797 19.2814 50.7646 19.1033 49.9626 18.7981V19.9936C49.9626 20.4515 50.0127 20.655 50.3636 20.9094C50.7395 21.2146 51.1907 21.5199 51.1907 22.2067C51.1907 23.593 49.1731 24 46.905 24C44.6618 24 42.6819 23.593 42.6819 22.2067C42.6819 21.5453 43.1079 21.2401 43.4588 20.9348C43.7596 20.6804 43.8348 20.5533 43.8348 19.9936V10.4547C43.8348 9.89507 43.6092 9.61526 43.3836 9.4372C43.0328 9.15739 42.7069 8.85215 42.7069 8.26709C42.7069 7.80922 42.9075 7.4531 43.3836 7.12242C44.6869 6.23211 47.1305 5.68521 48.2959 5.68521C49.7621 5.68521 49.9375 6.52464 49.9626 8.08903C50.7646 6.62639 52.331 5.58347 54.1105 5.58347C56.905 5.59618 58.8473 8.30525 58.8473 12.1463ZM52.5315 13.2655C52.5315 10.4801 51.93 9.46264 51.1406 9.46264C50.2884 9.46264 49.7872 10.6327 49.7872 13.4436C49.7872 16.2289 50.2884 16.9921 51.103 16.9921C51.93 16.9921 52.5315 16.0509 52.5315 13.2655Z" fill="#0C111D"/>
<path id="Vector_5" d="M75.8774 12.1463C75.8774 16.5723 73.2333 19.2814 69.7621 19.2814C68.8097 19.2814 67.7946 19.1033 66.9926 18.7981V19.9936C66.9926 20.4515 67.0428 20.655 67.3936 20.9094C67.7696 21.2146 68.2207 21.5199 68.2207 22.2067C68.2207 23.593 66.2032 24 63.935 24C61.6919 24 59.7119 23.593 59.7119 22.2067C59.7119 21.5453 60.138 21.2401 60.4889 20.9348C60.7896 20.6805 60.8648 20.5533 60.8648 19.9936V10.4547C60.8648 9.89508 60.6392 9.61527 60.4137 9.43721C60.0628 9.1574 59.737 8.85215 59.737 8.2671C59.737 7.80923 59.9375 7.45311 60.4137 7.12242C61.7169 6.23212 64.1605 5.68522 65.326 5.68522C66.7921 5.68522 66.9676 6.52465 66.9926 8.08904C67.7946 6.63912 69.3736 5.59619 71.1405 5.59619C73.935 5.59619 75.8774 8.30525 75.8774 12.1463ZM69.5741 13.2655C69.5741 10.4801 68.9726 9.46265 68.1831 9.46265C67.331 9.46265 66.8297 10.6328 66.8297 13.4436C66.8297 16.2289 67.331 16.9921 68.1455 16.9921C68.9726 16.9921 69.5741 16.0509 69.5741 13.2655Z" fill="#0C111D"/>
<path id="Vector_6" d="M76.8047 17.3736C76.8047 16.7122 77.2057 16.4579 77.5817 16.1781C77.8072 16 77.9326 15.8219 77.9326 15.2623V5.29094C77.9326 4.52782 77.5817 4.19714 77.2809 3.9682C76.8298 3.61208 76.3787 3.2814 76.3787 2.63275C76.3787 2.17488 76.5792 1.79332 77.0804 1.46264C78.4213 0.534181 81.0403 0 82.2935 0C84.0353 0 84.0604 1.03021 84.0604 3.06518V5.79968V15.2623C84.0604 15.8219 84.1606 16 84.3862 16.1781C84.7371 16.4579 85.113 16.7122 85.113 17.3736C85.113 18.7854 83.321 19.1924 81.0027 19.1924C78.6218 19.1924 76.8047 18.7854 76.8047 17.3736Z" fill="#0C111D"/>
<path id="Vector_7" d="M99.2609 14.5882C99.2609 15.3005 98.9601 16.1018 98.3837 16.8394C97.3561 18.2003 95.4137 19.3704 92.7446 19.3704C88.8097 19.3704 86.0403 16.6105 86.0403 12.7568C86.0403 8.6105 89.1857 5.59619 93.2458 5.59619C97.1431 5.59619 99.1857 8.17807 99.1857 10.1749C99.1857 11.5485 98.3336 12.2735 96.7421 12.2735H91.504C91.9551 13.5835 93.0704 14.3466 94.7245 14.3466C95.7521 14.3466 96.5165 14.1177 97.2684 13.6852C97.6193 13.4817 97.9701 13.3291 98.321 13.3291C98.8599 13.3418 99.2609 13.7234 99.2609 14.5882ZM91.2533 10.7345L92.331 10.6582C93.8724 10.5564 94.4864 9.97139 94.4864 9.17012C94.4864 8.48331 94.0353 7.94913 93.2333 7.94913C92.0679 7.94913 91.2533 9.14468 91.2533 10.7345Z" fill="#0C111D"/>
<path id="Vector_8" d="M115.765 17.3736C115.765 18.3657 114.637 19.1924 111.028 19.1924C107.883 19.1924 106.341 18.531 106.341 17.3736C106.341 16.7123 106.893 16.6105 106.893 16.1018C106.893 15.8983 106.592 15.4404 106.141 14.8681C105.99 14.6646 105.815 14.4356 105.614 14.2067L105.213 14.6391C104.662 15.2496 104.336 15.7584 104.336 16.0763C104.336 16.5596 105.188 16.7631 105.188 17.6407C105.188 18.4801 104.311 19.1924 102.068 19.1924C100.101 19.1924 99.2234 18.5819 99.2234 17.6153C99.2234 16.9285 99.8249 16.4833 100.201 16.2544C100.928 15.822 101.379 15.5676 102.97 13.8506C103.321 13.4944 103.697 13.062 104.161 12.566C103.559 11.9046 102.933 11.2178 102.394 10.6709C101.592 9.85693 100.953 9.25915 100.752 9.10653C100.076 8.62322 99.474 8.29254 99.474 7.54214C99.474 6.55009 100.502 5.72338 104.111 5.72338C107.231 5.72338 108.672 6.38475 108.672 7.54214C108.672 8.1272 108.296 8.33069 108.296 8.85216C108.296 9.00478 108.472 9.31003 108.772 9.69159C108.873 9.84421 108.998 9.99683 109.148 10.1749C109.274 10.0477 109.399 9.92052 109.499 9.79333C109.85 9.3609 110.076 8.97934 110.076 8.62322C110.076 8.16535 109.624 7.96186 109.624 7.35136C109.624 6.41019 110.477 5.71066 112.67 5.71066C114.637 5.71066 115.489 6.32116 115.489 7.30049C115.489 8.03817 114.938 8.36885 114.336 8.59779C113.86 8.77585 113.459 8.97934 111.792 10.62C111.467 10.9762 111.066 11.3832 110.589 11.841C111.216 12.5278 111.893 13.2019 112.482 13.8379C113.384 14.8045 114.148 15.5549 114.374 15.7838C114.85 16.2289 115.765 16.4833 115.765 17.3736Z" fill="#0C111D"/>
</g>
</svg>
